<svg xmlns="http://www.w3.org/2000/svg" viewBox="0 0 512 512">
  <defs>
    <linearGradient id="bg" x1="0" y1="0" x2="0" y2="1">
      <stop offset="0%" stop-color="#EF514A"/>
      <stop offset="100%" stop-color="#C42A1C"/>
    </linearGradient>
  </defs>

  <!-- Background (full bleed — OS applies its own mask) -->
  <rect width="512" height="512" fill="url(#bg)"/>

  <!-- Fork -->
  <g fill="#F8EECB">
    <rect x="162" y="82" width="14" height="92" rx="7"/>
    <rect x="184" y="82" width="14" height="92" rx="7"/>
    <rect x="206" y="82" width="14" height="92" rx="7"/>
    <path d="M 162,165 L 220,165 L 220,192 Q 220,212 198,212 L 198,422 Q 198,432 191,432 Q 184,432 184,422 L 184,212 Q 162,212 162,192 Z"/>
  </g>

  <!-- Knife -->
  <g fill="#F8EECB">
    <path d="M 322,82 Q 350,82 350,115 L 350,206 Q 350,218 338,218 L 306,218 Q 294,218 294,206 L 294,115 Q 294,82 322,82 Z"/>
    <rect x="312" y="216" width="20" height="216" rx="10"/>
  </g>
</svg>
